<svg xmlns="http://www.w3.org/2000/svg" xmlns:xlink="http://www.w3.org/1999/xlink" width="296.074" height="250.96" viewBox="0 0 296.074 250.96">
  <defs>
    <clipPath id="clip-path">
      <rect width="296.074" height="250.96" fill="none"/>
    </clipPath>
  </defs>
  <g id="Repeat_Grid_1" data-name="Repeat Grid 1" clip-path="url(#clip-path)">
    <g transform="translate(-39.463 115.48)">
      <path id="Polygon_7" data-name="Polygon 7" d="M197.5,0a43,43,0,0,1,37.036,21.153l48.654,82.48a43,43,0,0,1,0,43.694l-48.654,82.48A43,43,0,0,1,197.5,250.96H98.577a43,43,0,0,1-37.036-21.153l-48.654-82.48a43,43,0,0,1,0-43.694l48.654-82.48A43,43,0,0,1,98.577,0Z" transform="translate(39.463 -115.48)" fill="#eaf5ff"/>
    </g>
  </g>
</svg>
