<svg xmlns="http://www.w3.org/2000/svg" width="630.579" height="655.112" viewBox="0 0 630.579 655.112">
  <g id="Polygon_5" data-name="Polygon 5" transform="matrix(0.53, 0.848, -0.848, 0.53, 362.931, 0)" fill="none">
    <path d="M354.251,0a43,43,0,0,1,37.033,21.147l100.894,170.98a43,43,0,0,1,0,43.706L391.284,406.813a43,43,0,0,1-37.033,21.147H150.823a43,43,0,0,1-37.033-21.147L12.9,235.833a43,43,0,0,1,0-43.706L113.79,21.147A43,43,0,0,1,150.823,0Z" stroke="none"/>
    <path d="M 150.8228454589844 3 C 143.877685546875 3 137.0188293457031 4.820343017578125 130.9877014160156 8.26434326171875 C 124.9566345214844 11.70828247070312 119.9031066894531 16.69021606445312 116.3735656738281 22.67160034179688 L 15.47903442382812 193.6517486572266 C 8.079833984375 206.1907501220703 8.079833984375 221.7694854736328 15.47903442382812 234.3085479736328 L 116.3735046386719 405.2886962890625 C 119.9030456542969 411.27001953125 124.9565734863281 416.2520141601562 130.9876403808594 419.6959533691406 C 137.0187683105469 423.139892578125 143.877685546875 424.9602966308594 150.8228454589844 424.9602966308594 L 354.251220703125 424.9602966308594 C 361.1963500976562 424.9602966308594 368.0552368164062 423.139892578125 374.0863647460938 419.6959533691406 C 380.1174926757812 416.2520141601562 385.1709594726562 411.27001953125 388.7005615234375 405.2886962890625 L 489.594970703125 234.3085479736328 C 496.9941711425781 221.7695465087891 496.9941711425781 206.1907501220703 489.594970703125 193.6517486572266 L 388.7006225585938 22.67160034179688 C 385.1709594726562 16.69021606445312 380.1174926757812 11.70828247070312 374.0863647460938 8.26434326171875 C 368.0552368164062 4.820343017578125 361.1963500976562 3 354.251220703125 3 L 150.8228454589844 3 M 150.8228454589844 0 L 354.251220703125 0 C 369.4677124023438 0 383.5510864257812 8.042022705078125 391.2843017578125 21.14700317382812 L 492.1787109375 192.1271514892578 C 500.1346435546875 205.609619140625 500.1346435546875 222.3506774902344 492.1787109375 235.8331451416016 L 391.2843017578125 406.8132934570312 C 383.5510864257812 419.918212890625 369.4677124023438 427.9602966308594 354.251220703125 427.9602966308594 L 150.8228454589844 427.9602966308594 C 135.6062927246094 427.9602966308594 121.5228881835938 419.918212890625 113.7897644042969 406.8132934570312 L 12.89529418945312 235.8331451416016 C 4.939361572265625 222.3506164550781 4.939361572265625 205.609619140625 12.89529418945312 192.1271514892578 L 113.7898254394531 21.14700317382812 C 121.5229797363281 8.042022705078125 135.6063537597656 0 150.8228454589844 0 Z" stroke="none" fill="#8abdff"/>
  </g>
</svg>
