<svg xmlns="http://www.w3.org/2000/svg" width="220" height="35" viewBox="0 0 220 35">
  <g id="Group_3598" data-name="Group 3598" transform="translate(-78 -553)">
    <g id="Group_3594" data-name="Group 3594" transform="translate(-22)">
      <g id="Group_3596" data-name="Group 3596">
        <g id="Path_10171" data-name="Path 10171" transform="translate(285 553)" fill="none">
          <path d="M17.5,0A17.5,17.5,0,1,1,0,17.5,17.5,17.5,0,0,1,17.5,0Z" stroke="none"/>
          <path d="M 17.5 2.5 C 13.49336051940918 2.5 9.726530075073242 4.060270309448242 6.893400192260742 6.893400192260742 C 4.060270309448242 9.726530075073242 2.5 13.49336051940918 2.5 17.5 C 2.5 21.50664138793945 4.060270309448242 25.27346992492676 6.893400192260742 28.10659980773926 C 9.726530075073242 30.93972969055176 13.49336051940918 32.5 17.5 32.5 C 21.50664138793945 32.5 25.27346992492676 30.93972969055176 28.10659980773926 28.10659980773926 C 30.93972969055176 25.27346992492676 32.5 21.50664138793945 32.5 17.5 C 32.5 13.49336051940918 30.93972969055176 9.726530075073242 28.10659980773926 6.893400192260742 C 25.27346992492676 4.060270309448242 21.50664138793945 2.5 17.5 2.5 M 17.5 0 C 27.16497993469238 0 35 7.835020065307617 35 17.5 C 35 27.16497993469238 27.16497993469238 35 17.5 35 C 7.835020065307617 35 0 27.16497993469238 0 17.5 C 0 7.835020065307617 7.835020065307617 0 17.5 0 Z" stroke="none" fill="#fff"/>
        </g>
        <text id="_2" data-name="2" transform="translate(298 576)" fill="#fff" font-size="18" font-family="TrebuchetMS, Trebuchet MS"><tspan x="0" y="0">2</tspan></text>
      </g>
    </g>
    <path id="Path_10169" data-name="Path 10169" d="M3372.974,2959.5h130" transform="translate(-3250 -2389)" fill="none" stroke="#fff" stroke-width="1.5"/>
    <g id="Group_3595" data-name="Group 3595" opacity="0.5">
      <g id="Path_10170" data-name="Path 10170" transform="translate(78 553)" fill="none">
        <path d="M17.5,0A17.5,17.5,0,1,1,0,17.5,17.5,17.5,0,0,1,17.5,0Z" stroke="none"/>
        <path d="M 17.5 2.5 C 13.49336051940918 2.5 9.726530075073242 4.060270309448242 6.893400192260742 6.893400192260742 C 4.060270309448242 9.726530075073242 2.5 13.49336051940918 2.5 17.5 C 2.5 21.50664138793945 4.060270309448242 25.27346992492676 6.893400192260742 28.10659980773926 C 9.726530075073242 30.93972969055176 13.49336051940918 32.5 17.5 32.5 C 21.50664138793945 32.5 25.27346992492676 30.93972969055176 28.10659980773926 28.10659980773926 C 30.93972969055176 25.27346992492676 32.5 21.50664138793945 32.5 17.5 C 32.5 13.49336051940918 30.93972969055176 9.726530075073242 28.10659980773926 6.893400192260742 C 25.27346992492676 4.060270309448242 21.50664138793945 2.5 17.5 2.5 M 17.5 0 C 27.16497993469238 0 35 7.835020065307617 35 17.5 C 35 27.16497993469238 27.16497993469238 35 17.5 35 C 7.835020065307617 35 0 27.16497993469238 0 17.5 C 0 7.835020065307617 7.835020065307617 0 17.5 0 Z" stroke="none" fill="#fff"/>
      </g>
      <text id="_1" data-name="1" transform="translate(91 576)" fill="#fff" font-size="18" font-family="Sylfaen"><tspan x="0" y="0">1</tspan></text>
    </g>
  </g>
</svg>
